<svg width="30" height="30" viewBox="0 0 30 30" fill="none" xmlns="http://www.w3.org/2000/svg">
<g clip-path="url(#clip0_2906_100)">
<path d="M15 9.0625V23.4375M15 23.4375C15.7459 23.4375 16.4613 23.7338 16.9887 24.2613C17.5162 24.7887 17.8125 25.5041 17.8125 26.25C17.8125 26.9959 17.5162 27.7113 16.9887 28.2387C16.4613 28.7662 15.7459 29.0625 15 29.0625C14.2541 29.0625 13.5387 28.7662 13.0113 28.2387C12.4838 27.7113 12.1875 26.9959 12.1875 26.25C12.1875 25.5041 12.4838 24.7887 13.0113 24.2613C13.5387 23.7338 14.2541 23.4375 15 23.4375ZM3.75 23.4375V18.4375C3.75 17.9402 3.94754 17.4633 4.29917 17.1117C4.65081 16.76 5.12772 16.5625 5.625 16.5625H24.375C24.8723 16.5625 25.3492 16.76 25.7008 17.1117C26.0525 17.4633 26.25 17.9402 26.25 18.4375V23.4375M3.75 23.4375C4.49592 23.4375 5.21129 23.7338 5.73874 24.2613C6.26618 24.7887 6.5625 25.5041 6.5625 26.25C6.5625 26.9959 6.26618 27.7113 5.73874 28.2387C5.21129 28.7662 4.49592 29.0625 3.75 29.0625C3.00408 29.0625 2.28871 28.7662 1.76126 28.2387C1.23382 27.7113 0.9375 26.9959 0.9375 26.25C0.9375 25.5041 1.23382 24.7887 1.76126 24.2613C2.28871 23.7338 3.00408 23.4375 3.75 23.4375ZM26.25 23.4375C26.9959 23.4375 27.7113 23.7338 28.2387 24.2613C28.7662 24.7887 29.0625 25.5041 29.0625 26.25C29.0625 26.9959 28.7662 27.7113 28.2387 28.2387C27.7113 28.7662 26.9959 29.0625 26.25 29.0625C25.5041 29.0625 24.7887 28.7662 24.2613 28.2387C23.7338 27.7113 23.4375 26.9959 23.4375 26.25C23.4375 25.5041 23.7338 24.7887 24.2613 24.2613C24.7887 23.7338 25.5041 23.4375 26.25 23.4375ZM22.8125 0.9375H7.1875C6.93886 0.9375 6.7004 1.03627 6.52459 1.21209C6.34877 1.3879 6.25 1.62636 6.25 1.875V8.125C6.25 8.6425 6.67 9.0625 7.1875 9.0625H22.8125C23.0611 9.0625 23.2996 8.96373 23.4754 8.78791C23.6512 8.6121 23.75 8.37364 23.75 8.125V1.875C23.75 1.62636 23.6512 1.3879 23.4754 1.21209C23.2996 1.03627 23.0611 0.9375 22.8125 0.9375Z" stroke="#113058" stroke-width="2" stroke-linecap="round" stroke-linejoin="round"/>
</g>
<defs>
<clipPath id="clip0_2906_100">
<rect width="30" height="30" fill="white"/>
</clipPath>
</defs>
</svg>
