<svg width="28" height="28" viewBox="0 0 28 28" fill="none" xmlns="http://www.w3.org/2000/svg">
<path d="M16.333 2.33203H7.00058C6.3818 2.33203 5.78837 2.57789 5.35083 3.01551C4.91329 3.45313 4.66748 4.04667 4.66748 4.66555V23.3337C4.66748 23.9526 4.91329 24.5461 5.35083 24.9838C5.78837 25.4214 6.3818 25.6672 7.00058 25.6672H20.9992C21.618 25.6672 22.2114 25.4214 22.6489 24.9838C23.0865 24.5461 23.3323 23.9526 23.3323 23.3337V9.33259M16.333 2.33203C16.7023 2.33144 17.068 2.40391 17.4092 2.54528C17.7503 2.68665 18.0601 2.89413 18.3208 3.15577L22.5064 7.3421C22.7686 7.60288 22.9767 7.91305 23.1184 8.2547C23.2602 8.59634 23.3329 8.9627 23.3323 9.33259M16.333 2.33203V8.16583C16.333 8.47527 16.4559 8.77204 16.6747 8.99085C16.8934 9.20966 17.1901 9.33259 17.4995 9.33259L23.3323 9.33259M11.6668 10.4994H9.33368M18.6661 15.1664H9.33368M18.6661 19.8334H9.33368" stroke="#07808E" stroke-width="3" stroke-linecap="round"/>
</svg>
